<svg width="24" height="24" viewBox="0 0 24 24" fill="none" xmlns="http://www.w3.org/2000/svg">
<g id="account">
<g id="Vector">
<mask id="path-1-inside-1_0_189" fill="white">
<path d="M12 4C13.0609 4 14.0783 4.42143 14.8284 5.17157C15.5786 5.92172 16 6.93913 16 8C16 9.06087 15.5786 10.0783 14.8284 10.8284C14.0783 11.5786 13.0609 12 12 12C10.9391 12 9.92172 11.5786 9.17157 10.8284C8.42143 10.0783 8 9.06087 8 8C8 6.93913 8.42143 5.92172 9.17157 5.17157C9.92172 4.42143 10.9391 4 12 4ZM12 14C16.42 14 20 15.79 20 18V20H4V18C4 15.79 7.58 14 12 14Z"/>
</mask>
<path d="M16 8H17H16ZM12 12V13V12ZM8 8H7H8ZM20 20V21H21V20H20ZM4 20H3V21H4V20ZM12 5C12.7956 5 13.5587 5.31607 14.1213 5.87868L15.5355 4.46447C14.5979 3.52678 13.3261 3 12 3V5ZM14.1213 5.87868C14.6839 6.44129 15 7.20435 15 8H17C17 6.67392 16.4732 5.40215 15.5355 4.46447L14.1213 5.87868ZM15 8C15 8.79565 14.6839 9.55871 14.1213 10.1213L15.5355 11.5355C16.4732 10.5979 17 9.32608 17 8H15ZM14.1213 10.1213C13.5587 10.6839 12.7956 11 12 11V13C13.3261 13 14.5979 12.4732 15.5355 11.5355L14.1213 10.1213ZM12 11C11.2044 11 10.4413 10.6839 9.87868 10.1213L8.46447 11.5355C9.40215 12.4732 10.6739 13 12 13V11ZM9.87868 10.1213C9.31607 9.55871 9 8.79565 9 8H7C7 9.32608 7.52678 10.5979 8.46447 11.5355L9.87868 10.1213ZM9 8C9 7.20435 9.31607 6.44129 9.87868 5.87868L8.46447 4.46447C7.52678 5.40215 7 6.67392 7 8H9ZM9.87868 5.87868C10.4413 5.31607 11.2044 5 12 5V3C10.6739 3 9.40215 3.52678 8.46447 4.46447L9.87868 5.87868ZM12 15C14.0885 15 15.929 15.425 17.2103 16.0657C18.5511 16.7361 19 17.4776 19 18H21C21 16.3124 19.6589 15.0539 18.1047 14.2768C16.491 13.47 14.3315 13 12 13V15ZM19 18V20H21V18H19ZM20 19H4V21H20V19ZM5 20V18H3V20H5ZM5 18C5 17.4776 5.44887 16.7361 6.78971 16.0657C8.071 15.425 9.91146 15 12 15V13C9.66854 13 7.509 13.47 5.89529 14.2768C4.34113 15.0539 3 16.3124 3 18H5Z" fill="#DEDDDD" mask="url(#path-1-inside-1_0_189)"/>
</g>
</g>
</svg>
