<svg width="25" height="25" viewBox="0 0 25 25" fill="none" xmlns="http://www.w3.org/2000/svg">
<g id="refresh">
<path id="Vector" d="M17.9931 7.00693C16.5833 5.59721 14.6486 4.72221 12.5 4.72221C10.4372 4.72221 8.4589 5.54165 7.00029 7.00026C5.54167 8.45888 4.72223 10.4372 4.72223 12.5C4.72223 14.5628 5.54167 16.5411 7.00029 17.9997C8.4589 19.4583 10.4372 20.2778 12.5 20.2778C16.1264 20.2778 19.15 17.7986 20.0153 14.4444H17.9931C17.1958 16.7097 15.0375 18.3333 12.5 18.3333C10.9529 18.3333 9.46918 17.7187 8.37522 16.6248C7.28126 15.5308 6.66667 14.0471 6.66667 12.5C6.66667 10.9529 7.28126 9.46916 8.37522 8.37519C9.46918 7.28123 10.9529 6.66665 12.5 6.66665C14.1139 6.66665 15.5528 7.33748 16.6028 8.39721L13.4722 11.5278H20.2778V4.72221L17.9931 7.00693Z" fill="white"/>
</g>
</svg>
